PathFileType	4	(X/Y/Z)	/Users/itak/Documents/Research/Walk-IL/dataset/trc/00375_00011.trc
DataRate	CameraRate	NumFrames	NumMarkers	Units	OrigDataRate	OrigDataStartFrame	OrigNumFrames
100.000000	100.000000	4	56	mm	100.000000	0	502
Frame#	Time	RPSI			LPSI			L3			STRN			T10			C7			CLAV			RBAK			LBAK			LSHO			LUPA			LAEL			LAOL			LWPS			LFRA			LHPS			LHTS			RSHO			RUPA			RAEL			RAOL			RWTS			RWPS			RFRA			RIFD			RHTS			RHPS			RBHD			LFHD			RFHD			LBHD			LHIP			RHIP			RASI			LASI			LKNE			LTHI			LANK			LTIP			LTOE			LMT1			LMT5			LHEE			RKNE			RTHI			RANK			RTIP			RTOE			RMT1			RMT5			RHEE			LIFD			LWTS			*53			*54			*55			
		X1	Y1	Z1	X2	Y2	Z2	X3	Y3	Z3	X4	Y4	Z4	X5	Y5	Z5	X6	Y6	Z6	X7	Y7	Z7	X8	Y8	Z8	X9	Y9	Z9	X10	Y10	Z10	X11	Y11	Z11	X12	Y12	Z12	X13	Y13	Z13	X14	Y14	Z14	X15	Y15	Z15	X16	Y16	Z16	X17	Y17	Z17	X18	Y18	Z18	X19	Y19	Z19	X20	Y20	Z20	X21	Y21	Z21	X22	Y22	Z22	X23	Y23	Z23	X24	Y24	Z24	X25	Y25	Z25	X26	Y26	Z26	X27	Y27	Z27	X28	Y28	Z28	X29	Y29	Z29	X30	Y30	Z30	X31	Y31	Z31	X32	Y32	Z32	X33	Y33	Z33	X34	Y34	Z34	X35	Y35	Z35	X36	Y36	Z36	X37	Y37	Z37	X38	Y38	Z38	X39	Y39	Z39	X40	Y40	Z40	X41	Y41	Z41	X42	Y42	Z42	X43	Y43	Z43	X44	Y44	Z44	X45	Y45	Z45	X46	Y46	Z46	X47	Y47	Z47	X48	Y48	Z48	X49	Y49	Z49	X50	Y50	Z50	X51	Y51	Z51	X52	Y52	Z52	X53	Y53	Z53	X54	Y54	Z54	X55	Y55	Z55	X56	Y56	Z56	

1	0	-1416.140258789062	984.7380981445312	-19.72220420837402	-1407.013427734375	983.1726684570312	-148.5472412109375	-1413.032592773438	1043.97021484375	-84.06641387939453	-1181.692626953125	1219.730346679688	-86.02644348144531	-1423.36767578125	1163.075317382812	-102.5431747436523	-1372.337280273438	1410.037841796875	-116.0598983764648	-1217.765747070312	1348.144775390625	-94.16771697998047	-1437.842529296875	1273.3388671875	-49.32122039794922	-1374.2666015625	1373.590454101562	-218.3064270019531	-1281.674560546875	1389.96142578125	-265.2742309570312	-1301.65869140625	1272.161743164062	-336.0660095214844	-1296.160888671875	1068.90478515625	-350.4958801269531	-1365.2705078125	1057.634887695312	-302.0734558105469	-1234.228759765625	817.411376953125	-351.8633422851562	-1281.589233398438	963.6477661132812	-356.7836303710938	-1237.266723632812	746.2510375976562	-344.4626770019531	-1190.274291992188	750.3158569335938	-300.0679321289062	-1333.229370117188	1391.383178710938	50.75034332275391	-1355.060668945312	1327.070190429688	114.5456466674805	-1353.869262695312	1062.181884765625	159.9227447509766	-1392.07568359375	1050.529541015625	73.71405792236328	-1243.86767578125	832.384521484375	122.4099502563477	-1275.545288085938	826.3159790039062	191.7866821289062	-1327.8876953125	996.9345703125	171.8041381835938	-1255.092895507812	659.7332153320312	147.0075378417969	-1225.582275390625	727.2734375	145.5493774414062	-1270.751953125	741.4002685546875	197.1282196044922	-1358.388916015625	1604.839111328125	-56.98634719848633	-1163.168701171875	1626.7490234375	-128.5863037109375	-1198.988159179688	1634.4111328125	-35.1871452331543	-1332.3505859375	1585.810913085938	-197.9190521240234	-1315.68408203125	921.8999633789062	-245.6938323974609	-1346.5654296875	927.8897705078125	93.84908294677734	-1237.540771484375	952.8849487304688	57.91313171386719	-1198.010864257812	943.491943359375	-178.9205627441406	-1313.87109375	467.7490539550781	-247.6000213623047	-1292.467895507812	602.5807495117188	-252.1909027099609	-1405.168212890625	50.30644226074219	-261.6299438476562	-1360.926879882812	255.1671752929688	-269.3345336914062	-1200.458984375	44.46796417236328	-194.2607879638672	-1269.962524414062	34.44192504882812	-157.2587127685547	-1278.727294921875	45.14666366577148	-270.0852661132812	-1441.11669921875	45.17456817626953	-195.3470458984375	-1345.188232421875	465.1868286132812	103.8256454467773	-1285.709350585938	721.537109375	114.0700378417969	-1408.774658203125	55.76918792724609	111.7704238891602	-1344.628051757812	349.1307373046875	104.291015625	-1217.62255859375	46.67754364013672	57.55920791625977	-1275.368530273438	38.88694381713867	17.6086483001709	-1305.921020507812	43.10257720947266	130.0397338867188	-1460.813232421875	53.51359939575195	65.75274658203125	-1218.449951171875	675.4226684570312	-264.1383972167969	-1206.970947265625	828.9240112304688	-289.6591796875	nan	nan	nan	nan	nan	nan	nan	nan	nan	
2	0.01	-1415.996826171875	984.7738647460938	-19.70329475402832	-1407.01025390625	983.2178344726562	-148.5502014160156	-1412.894409179688	1043.961791992188	-84.02216339111328	-1181.570922851562	1219.752563476562	-86.02956390380859	-1423.190307617188	1163.088745117188	-102.4430389404297	-1372.233276367188	1410.068969726562	-115.9842300415039	-1217.596923828125	1348.148559570312	-94.17266082763672	-1437.648681640625	1273.374633789062	-49.22842025756836	-1374.196533203125	1373.615966796875	-218.2229614257812	-1281.629028320312	1389.995727539062	-265.2202758789062	-1301.641479492188	1272.206176757812	-336.0083923339844	-1296.12646484375	1068.943359375	-350.5266723632812	-1365.148193359375	1057.636962890625	-302.033447265625	-1234.104248046875	817.5000610351562	-352.0087890625	-1281.51025390625	963.6937255859375	-356.8494567871094	-1236.9365234375	746.331298828125	-344.5718688964844	-1189.840576171875	750.45703125	-300.2464904785156	-1333.029174804688	1391.477294921875	50.76998138427734	-1355.029174804688	1327.225463867188	114.6266555786133	-1354.419677734375	1062.33935546875	159.9953765869141	-1392.887329101562	1050.858520507812	73.86878204345703	-1245.617431640625	832.10205078125	121.4735488891602	-1276.379150390625	826.2427368164062	191.25732421875	-1328.589111328125	996.9798583984375	171.7157745361328	-1256.711181640625	659.4475708007812	146.7600708007812	-1227.3046875	726.9931030273438	144.6641082763672	-1271.562255859375	741.4065551757812	196.6767883300781	-1358.230712890625	1604.731079101562	-56.78051376342773	-1163.129272460938	1626.949584960938	-128.5228424072266	-1198.956298828125	1634.46630859375	-35.04346466064453	-1332.402221679688	1585.848876953125	-197.6856536865234	-1315.730834960938	921.93359375	-245.7681121826172	-1346.556518554688	927.9407958984375	93.68710327148438	-1237.35888671875	952.8688354492188	57.77647018432617	-1198.164306640625	943.426025390625	-179.0346984863281	-1313.938354492188	467.763427734375	-247.7154235839844	-1292.586303710938	602.623046875	-252.3362121582031	-1405.164428710938	50.30622482299805	-261.6338195800781	-1360.95849609375	255.170654296875	-269.37353515625	-1200.426635742188	44.42195892333984	-194.2877349853516	-1269.940063476562	34.45962905883789	-157.2623138427734	-1278.72705078125	45.14141082763672	-270.0924072265625	-1441.105346679688	45.19608306884766	-195.3438873291016	-1345.079467773438	465.1530456542969	103.7009811401367	-1287.167114257812	722.8037719726562	115.6999053955078	-1408.77001953125	55.77913284301758	111.7605133056641	-1344.544311523438	349.1060485839844	104.1916275024414	-1217.607788085938	46.66276550292969	57.5543098449707	-1275.371337890625	38.87902069091797	17.58691787719727	-1305.943115234375	43.08557510375977	130.0483703613281	-1460.788818359375	53.53301239013672	65.7203369140625	-1217.36181640625	675.6303100585938	-264.4729309082031	-1206.163940429688	829.4445190429688	-290.1013793945312	nan	nan	nan	nan	nan	nan	nan	nan	nan	
3	0.02	-1415.822998046875	984.8212280273438	-19.69004821777344	-1407.00146484375	983.2747192382812	-148.5571899414062	-1412.723999023438	1043.946899414062	-83.97016906738281	-1181.404296875	1219.790771484375	-86.03044891357422	-1422.975952148438	1163.102416992188	-102.3214721679688	-1372.110107421875	1410.101196289062	-115.8975601196289	-1217.395874023438	1348.152099609375	-94.17481994628906	-1437.408813476562	1273.421264648438	-49.10715866088867	-1374.1044921875	1373.643920898438	-218.1212463378906	-1281.56689453125	1390.03076171875	-265.1532592773438	-1301.609497070312	1272.251953125	-335.9401550292969	-1296.067626953125	1068.983764648438	-350.5694885253906	-1364.984497070312	1057.628784179688	-301.9948120117188	-1233.921997070312	817.5986938476562	-352.1848754882812	-1281.40234375	963.7421264648438	-356.9365539550781	-1236.527954101562	746.4190063476562	-344.7032470703125	-1189.356567382812	750.5865478515625	-300.4513549804688	-1332.794555664062	1391.597534179688	50.80373382568359	-1354.979125976562	1327.438842773438	114.7230758666992	-1355.139892578125	1062.565795898438	160.1284332275391	-1393.966918945312	1051.292236328125	74.13668823242188	-1247.7041015625	831.8352661132812	120.4139251708984	-1277.466430664062	826.1277465820312	190.6361389160156	-1329.474731445312	997.0606079101562	171.6649627685547	-1258.534301757812	659.1909790039062	146.1830902099609	-1229.275146484375	726.7454833984375	143.5284881591797	-1272.5947265625	741.371337890625	196.0146331787109	-1358.04833984375	1604.6015625	-56.51987075805664	-1163.069458007812	1627.196533203125	-128.4470977783203	-1198.922729492188	1634.532958984375	-34.86703491210938	-1332.4697265625	1585.886596679688	-197.3939208984375	-1315.78076171875	921.9754638671875	-245.8605499267578	-1346.572021484375	928.01806640625	93.48648834228516	-1237.110961914062	952.8329467773438	57.5981559753418	-1198.334350585938	943.3596801757812	-179.1781311035156	-1314.019897460938	467.77880859375	-247.8606414794922	-1292.739135742188	602.6776123046875	-252.5206604003906	-1405.16064453125	50.30643844604492	-261.6383361816406	-1361.005615234375	255.1795501708984	-269.4278869628906	-1200.385620117188	44.36306762695312	-194.3208312988281	-1269.913330078125	34.48078155517578	-157.2668609619141	-1278.724731445312	45.13277435302734	-270.1014099121094	-1441.091796875	45.22040939331055	-195.3399658203125	-1344.945434570312	465.1213989257812	103.5625610351562	-1289.353515625	724.7310791015625	118.1421661376953	-1408.762451171875	55.79086303710938	111.7481231689453	-1344.438110351562	349.0658874511719	104.0560607910156	-1217.589599609375	46.64199829101562	57.54849243164062	-1275.37109375	38.8651237487793	17.55923080444336	-1305.972778320312	43.0643196105957	130.0616912841797	-1460.75732421875	53.55823135375977	65.68037414550781	-1216.112182617188	675.828369140625	-264.8892822265625	-1205.339721679688	829.9232788085938	-290.5512390136719	nan	nan	nan	nan	nan	nan	nan	nan	nan	
4	0.03	-1415.626953125	984.8781127929688	-19.68807792663574	-1406.984252929688	983.3405151367188	-148.5694427490234	-1412.529296875	1043.923583984375	-83.91440582275391	-1181.193725585938	1219.847534179688	-86.02712249755859	-1422.739501953125	1163.114379882812	-102.1861419677734	-1371.975830078125	1410.130004882812	-115.8064117431641	-1217.176147460938	1348.154052734375	-94.17167663574219	-1437.134033203125	1273.4765625	-48.96053314208984	-1373.993041992188	1373.670654296875	-218.0067596435547	-1281.4892578125	1390.060791015625	-265.0760192871094	-1301.558837890625	1272.292114257812	-335.865478515625	-1295.97705078125	1069.020263671875	-350.6239318847656	-1364.781616210938	1057.605346679688	-301.9651489257812	-1233.678955078125	817.6962280273438	-352.3811950683594	-1281.262451171875	963.7867431640625	-357.0426940917969	-1236.067504882812	746.5051879882812	-344.8534545898438	-1188.855590820312	750.6876831054688	-300.6725158691406	-1332.543090820312	1391.739013671875	50.85477066040039	-1354.90771484375	1327.70751953125	114.8293991088867	-1356.013305664062	1062.860717773438	160.3382568359375	-1395.284057617188	1051.815307617188	74.53630065917969	-1249.966186523438	831.6436157226562	119.3379135131836	-1278.7880859375	825.9644165039062	189.9714660644531	-1330.5146484375	997.1814575195312	171.6769104003906	-1260.38427734375	659.0220336914062	145.1927185058594	-1231.303100585938	726.5941772460938	142.2046508789062	-1273.818237304688	741.274169921875	195.1287536621094	-1357.858276367188	1604.460205078125	-56.21570205688477	-1162.990600585938	1627.473388671875	-128.3639831542969	-1198.891235351562	1634.6064453125	-34.66843032836914	-1332.55029296875	1585.916870117188	-197.0584869384766	-1315.827026367188	922.0233154296875	-245.9668731689453	-1346.600708007812	928.1176147460938	93.26272583007812	-1236.797241210938	952.77392578125	57.38278961181641	-1198.49169921875	943.3076171875	-179.3495178222656	-1314.110473632812	467.79345703125	-248.0290679931641	-1292.918823242188	602.741455078125	-252.7365570068359	-1405.156982421875	50.30698776245117	-261.6430053710938	-1361.06884765625	255.194580078125	-269.4966735839844	-1200.338256835938	44.29352569580078	-194.3583374023438	-1269.884643554688	34.50447845458984	-157.2727813720703	-1278.7197265625	45.12053680419922	-270.1116638183594	-1441.077026367188	45.24520874023438	-195.3355255126953	-1344.791625976562	465.0973205566406	103.4220733642578	-1292.262573242188	727.3302612304688	121.3808746337891	-1408.751586914062	55.80427932739258	111.7342376708984	-1344.312377929688	349.0079956054688	103.8850479125977	-1217.5693359375	46.61555099487305	57.54131698608398	-1275.365478515625	38.84361267089844	17.52746963500977	-1306.007934570312	43.04176712036133	130.0771179199219	-1460.718872070312	53.58793640136719	65.63431549072266	-1214.814575195312	675.9702758789062	-265.3681640625	-1204.5927734375	830.288818359375	-290.9580078125	nan	nan	nan	nan	nan	nan	nan	nan	nan	
